<svg id="Layer_1" data-name="Layer 1" xmlns="http://www.w3.org/2000/svg" xmlns:xlink="http://www.w3.org/1999/xlink" viewBox="0 0 808.94 392.18"><defs><style>.cls-1{fill:#f8f9fa;}.cls-2{fill:#d8d8e4;}.cls-3{fill:url(#linear-gradient);}.cls-4{fill:url(#linear-gradient-2);}.cls-5{fill:url(#linear-gradient-3);}.cls-6{fill:url(#linear-gradient-4);}.cls-7{fill:url(#linear-gradient-5);}.cls-8{fill:url(#linear-gradient-6);}.cls-9{fill:url(#linear-gradient-7);}.cls-10{fill:url(#linear-gradient-8);}.cls-11{fill:url(#linear-gradient-9);}.cls-12{fill:url(#linear-gradient-10);}.cls-13{fill:url(#linear-gradient-11);}.cls-14{fill:url(#linear-gradient-12);}</style><linearGradient id="linear-gradient" x1="140.65" y1="70.9" x2="252.4" y2="70.9" gradientUnits="userSpaceOnUse"><stop offset="0" stop-color="#b0b3b5"/><stop offset="1" stop-color="#cfd4d6"/></linearGradient><linearGradient id="linear-gradient-2" x1="140.65" y1="225.81" x2="252.4" y2="225.81" gradientTransform="matrix(1, 0, 0, -0.65, 0, 272.41)" xlink:href="#linear-gradient"/><linearGradient id="linear-gradient-3" x1="140.65" y1="182.23" x2="252.4" y2="182.23" gradientTransform="matrix(1, 0, 0, -0.65, 0, 272.41)" xlink:href="#linear-gradient"/><linearGradient id="linear-gradient-4" x1="140.65" y1="138.65" x2="252.4" y2="138.65" gradientTransform="matrix(1, 0, 0, -0.65, 0, 272.41)" xlink:href="#linear-gradient"/><linearGradient id="linear-gradient-5" x1="773.2" y1="72.41" x2="790.07" y2="72.41" xlink:href="#linear-gradient"/><linearGradient id="linear-gradient-6" x1="291.62" y1="204.02" x2="403.37" y2="204.02" gradientTransform="matrix(1, 0, 0, -0.65, 0, 272.41)" xlink:href="#linear-gradient"/><linearGradient id="linear-gradient-7" x1="429.46" y1="204.02" x2="541.21" y2="204.02" gradientTransform="matrix(1, 0, 0, -0.65, 0, 272.41)" xlink:href="#linear-gradient"/><linearGradient id="linear-gradient-8" x1="565.45" y1="204.02" x2="677.2" y2="204.02" gradientTransform="matrix(1, 0, 0, -0.65, 0, 272.41)" xlink:href="#linear-gradient"/><linearGradient id="linear-gradient-9" x1="292.54" y1="116.86" x2="404.29" y2="116.86" gradientTransform="matrix(1, 0, 0, -0.65, 0, 272.41)" xlink:href="#linear-gradient"/><linearGradient id="linear-gradient-10" x1="430.38" y1="116.86" x2="542.13" y2="116.86" gradientTransform="matrix(1, 0, 0, -0.65, 0, 272.41)" xlink:href="#linear-gradient"/><linearGradient id="linear-gradient-11" x1="566.38" y1="116.86" x2="678.13" y2="116.86" gradientTransform="matrix(1, 0, 0, -0.65, 0, 272.41)" xlink:href="#linear-gradient"/><linearGradient id="linear-gradient-12" x1="292.54" y1="306.22" x2="404.29" y2="306.22" gradientTransform="matrix(1, 0, 0, -0.65, 0, 272.41)" xlink:href="#linear-gradient"/></defs><rect class="cls-1" x="126.22" y="47.68" width="682.71" height="333.67" rx="20"/><path class="cls-2" d="M146.08,47.68H267a0,0,0,0,1,0,0V381.35a0,0,0,0,1,0,0H146.08a20,20,0,0,1-20-20V67.68A20,20,0,0,1,146.08,47.68Z"/><rect class="cls-3" x="140.65" y="62.46" width="111.75" height="16.87" rx="6.86"/><rect class="cls-4" x="140.65" y="119.42" width="111.75" height="11.02" rx="4.48"/><rect class="cls-5" x="140.65" y="147.88" width="111.75" height="11.02" rx="4.48"/><rect class="cls-6" x="140.65" y="176.35" width="111.75" height="11.02" rx="4.48"/><rect class="cls-7" x="773.2" y="63.98" width="16.87" height="16.87" rx="6.86"/><rect class="cls-8" x="291.62" y="119.42" width="111.75" height="39.48" rx="4.48"/><rect class="cls-9" x="429.46" y="119.42" width="111.75" height="39.48" rx="4.48"/><rect class="cls-10" x="565.45" y="119.42" width="111.75" height="39.48" rx="4.48"/><rect class="cls-11" x="292.54" y="176.35" width="111.75" height="39.48" rx="4.48"/><rect class="cls-12" x="430.38" y="176.35" width="111.75" height="39.48" rx="4.48"/><rect class="cls-13" x="566.38" y="176.35" width="111.75" height="39.48" rx="4.48"/><rect class="cls-14" x="292.54" y="66.9" width="111.75" height="11.02" rx="4.48"/><image width="256" height="546" transform="scale(0.72)" xlink:href="../../../../../../../../Users/Isna%20Prasetyo/Downloads/business-3d-man-in-formalwear-walking-with-phone.png"/></svg>